<svg width="24" height="24" viewBox="0 0 24 24" fill="none" xmlns="http://www.w3.org/2000/svg">
<path d="M12.7314 6.74121C14.504 4.83923 16.2972 4.71873 17.5918 5.33008C18.959 5.97577 20 7.53755 20 9.44043C19.9999 11.3979 19.2279 12.9073 18.1025 14.2158C16.9433 15.5638 15.486 16.6217 14.1035 17.7461L14.1025 17.7471C13.6267 18.1353 13.2215 18.4589 12.8379 18.6904C12.453 18.9227 12.188 19 12 19C11.8122 19 11.5473 18.9229 11.1621 18.6904C10.7781 18.4586 10.3739 18.1348 9.89746 17.7471H9.89648C8.5143 16.6215 7.05785 15.5638 5.89844 14.2158C4.77285 12.9071 4.00009 11.3974 4 9.43945C4 7.53602 5.04114 5.9744 6.4082 5.3291C7.70272 4.71809 9.49594 4.83915 11.2686 6.74121L12 7.52637L12.7314 6.74121Z" fill="#AFCBFB" stroke="#AFCBFB" stroke-width="2"/>
</svg>
